<?xml version="1.0" encoding="UTF-8" standalone="no"?>
<!-- Created with Inkscape (http://www.inkscape.org/) -->

<svg
   width="264.05417mm"
   height="106.89259mm"
   viewBox="0 0 264.05417 106.89259"
   version="1.1"
   id="svg1"
   inkscape:version="1.4.2 (ebf0e940d0, 2025-05-08)"
   sodipodi:docname="cinc_logo_3.svg"
   xmlns:inkscape="http://www.inkscape.org/namespaces/inkscape"
   xmlns:sodipodi="http://sodipodi.sourceforge.net/DTD/sodipodi-0.dtd"
   xmlns="http://www.w3.org/2000/svg"
   xmlns:svg="http://www.w3.org/2000/svg">
  <sodipodi:namedview
     id="namedview1"
     pagecolor="#ffffff"
     bordercolor="#000000"
     borderopacity="0.25"
     inkscape:showpageshadow="2"
     inkscape:pageopacity="0.0"
     inkscape:pagecheckerboard="0"
     inkscape:deskcolor="#d1d1d1"
     inkscape:document-units="mm"
     inkscape:zoom="0.67793911"
     inkscape:cx="506.68267"
     inkscape:cy="421.12927"
     inkscape:window-width="1920"
     inkscape:window-height="1011"
     inkscape:window-x="0"
     inkscape:window-y="0"
     inkscape:window-maximized="1"
     inkscape:current-layer="layer1" />
  <defs
     id="defs1" />
  <g
     inkscape:label="Capa 1"
     inkscape:groupmode="layer"
     id="layer1"
     transform="translate(29.104172,-37.040811)">
    <path
       style="fill:#000000;stroke-width:0.065;stroke:#000000;stroke-opacity:0;stroke-dasharray:none;fill-rule:nonzero"
       d="m 105.03958,143.51225 -1.45521,-0.38626 -1.4053,-0.68206 -1.40529,-0.68207 -1.407169,-1.37383 -1.407166,-1.37384 -0.66993,-1.32204 -0.66993,-1.32204 -0.464643,-1.5762 -0.464643,-1.5762 -0.0093,-2.51355 -0.0093,-2.51354 0.35605,-1.45521 0.356049,-1.4552 0.621263,-1.41639 0.621263,-1.41639 0.95349,-1.29891 0.953486,-1.29891 1.46485,-1.04895 1.46484,-1.04896 1.46187,-0.54695 1.46187,-0.54695 1.87696,-0.23607 1.87696,-0.23605 2.0953,0.3658 2.09529,0.36579 1.60887,0.79585 1.60888,0.79586 0.85989,0.79101 0.8599,0.79101 v 1.03224 1.03224 l -0.48386,0.43789 -0.48385,0.43788 h -0.86713 -0.86714 l -1.00922,-0.79932 -1.00923,-0.79933 -1.27781,-0.56876 -1.2778,-0.56876 -2.05342,0.0103 -2.05341,0.0103 -1.70297,0.83837 -1.70297,0.83837 -1.04731,1.1898 -1.04731,1.18981 -0.55467,1.18 -0.55466,1.18 -0.317899,1.85381 -0.317892,1.8538 0.324805,1.89412 0.324816,1.89412 0.70705,1.2991 0.70706,1.29909 0.92815,0.81493 0.92815,0.81493 1.43046,0.65488 1.43046,0.65489 1.65975,0.13323 1.65975,0.13323 1.37325,-0.32944 1.37326,-0.32944 1.32988,-0.89494 1.32988,-0.89494 h 1.01675 1.01674 l 0.41188,0.58804 0.41187,0.58804 v 0.6992 0.69919 l -0.53922,0.68551 -0.53922,0.68551 -1.64359,0.79966 -1.64359,0.79966 -1.57694,0.4026 -1.57695,0.40259 -1.99493,-0.0174 -1.99493,-0.0174 z m 7.64728,-0.87345 1.61215,-0.50176 1.33172,-0.85456 1.33171,-0.85455 0.26559,-0.49626 0.26559,-0.49626 -0.28153,-0.52604 -0.28153,-0.52604 -0.60341,-0.15145 -0.60342,-0.15144 -1.39238,0.937 -1.39239,0.93701 -1.10542,0.298 -1.10542,0.298 -2.40817,-0.10501 -2.40816,-0.10501 -1.73639,-0.85482 -1.73638,-0.85482 -0.85578,-0.97467 -0.85578,-0.97468 -0.66119,-1.44423 -0.661184,-1.44422 -0.126449,-2.4175 -0.126453,-2.4175 0.303366,-1.41454 0.303366,-1.41455 0.673404,-1.35039 0.6734,-1.35039 1.05866,-1.08645 1.05866,-1.08646 1.1424,-0.57054 1.14241,-0.57055 1.5518,-0.28946 1.55181,-0.28947 1.54599,0.15905 1.546,0.15904 1.23213,0.54272 1.23213,0.54271 0.97667,0.78169 0.97667,0.78168 h 0.2801 0.2801 l 0.52916,-0.52917 0.52917,-0.52916 v -0.38617 -0.38617 l -0.7276,-0.68396 -0.72761,-0.68396 -1.32291,-0.76023 -1.32292,-0.76022 -1.62569,-0.4186 -1.62569,-0.41861 h -1.55987 -1.55986 l -1.55714,0.40558 -1.55713,0.40559 -1.30575,0.71067 -1.30574,0.71067 -1.3753,1.3753 -1.375299,1.3753 -0.839756,1.67564 -0.839756,1.67563 -0.401614,1.57694 -0.401613,1.57694 v 2.13778 2.13778 l 0.394671,1.51525 0.394671,1.51524 0.695468,1.37244 0.69547,1.37245 1.369899,1.33509 1.369899,1.33509 1.53833,0.75026 1.53833,0.75026 1.62403,0.36927 1.62402,0.36927 1.76079,-0.12686 1.76079,-0.12685 z m 10.1421,1.02324 -0.59916,-0.24367 -0.26073,-0.68579 -0.26074,-0.68578 v -7.60512 -7.60513 l 0.35942,-0.49154 0.35943,-0.49154 h 1.21398 1.21397 l 0.41098,0.34108 0.41097,0.34108 v 8.26958 8.26958 l -0.33073,0.26643 -0.33073,0.26642 -0.79375,0.14903 -0.79375,0.14904 z m 2.00145,-0.83996 0.3175,-0.3175 v -7.69937 -7.69938 l -0.3175,-0.3175 -0.3175,-0.3175 h -0.72193 -0.72193 l -0.43666,0.43666 -0.43665,0.43665 0.18645,7.56699 0.18646,7.56699 0.2637,0.33073 0.26369,0.33073 h 0.70844 0.70843 z m 6.23156,0.85705 -0.56824,-0.23788 -0.2181,-0.34927 -0.2181,-0.34927 0.081,-8.06946 0.081,-8.06946 0.28467,-0.343 0.28467,-0.34301 1.47905,0.0781 1.47904,0.0781 0.24101,0.54847 0.24101,0.54847 1.47878,-0.60833 1.47879,-0.60835 1.98437,-0.004 1.98438,-0.004 1.35388,0.6304 1.35388,0.6304 0.71894,0.94258 0.71895,0.94259 0.37457,1.2446 0.37457,1.24461 v 5.72588 5.72587 l -0.3175,0.3175 -0.3175,0.3175 h -1.3699 -1.36989 l -0.2775,-0.33437 -0.2775,-0.33436 -0.0856,-5.68491 -0.0856,-5.6849 -0.58845,-0.82496 -0.58845,-0.82495 -0.80762,-0.33453 -0.80763,-0.33453 -1.24491,0.17064 -1.2449,0.17063 -0.9309,0.75009 -0.93089,0.75009 -0.32683,0.63563 -0.32683,0.63564 -0.004,5.32541 -0.004,5.32542 -0.33073,0.2733 -0.33073,0.27331 -0.92604,0.1478 -0.92604,0.14781 z m 2.27872,-1.05132 0.27389,-0.51177 v -5.29986 -5.29985 l 0.85576,-0.97466 0.85576,-0.97466 0.85554,-0.35747 0.85553,-0.35746 1.52985,0.001 1.52985,0.001 0.87582,0.53397 0.87582,0.53397 0.38095,0.91175 0.38095,0.91175 v 5.18527 5.18526 l 0.2739,0.51178 0.27389,0.51177 h 0.86381 0.86382 l 0.3175,-0.3175 0.3175,-0.3175 v -4.96114 -4.96115 l -0.28363,-1.32254 -0.28364,-1.32254 -0.79047,-1.09121 -0.79046,-1.09121 -1.3733,-0.6394 -1.37329,-0.63939 -1.37914,-0.003 -1.37913,-0.003 -1.44103,0.53915 -1.44103,0.53916 -0.32109,0.38689 -0.32108,0.38686 h -0.36448 -0.36448 v -0.60854 -0.60854 l -0.3175,-0.3175 -0.3175,-0.3175 h -0.82021 -0.82021 l -0.3175,0.3175 -0.3175,0.3175 v 7.69938 7.69937 l 0.3175,0.3175 0.3175,0.3175 h 0.86382 0.86382 z m 24.68555,0.89764 -1.38521,-0.37305 -1.37104,-0.69476 -1.37104,-0.69476 -1.36732,-1.29316 -1.36733,-1.29316 -0.70073,-1.28747 -0.70072,-1.28746 -0.44353,-1.69196 -0.44354,-1.69196 -0.005,-2.51355 -0.005,-2.51354 0.33905,-1.45521 0.33905,-1.4552 0.916,-1.8894 0.91599,-1.8894 1.43459,-1.44607 1.43459,-1.44608 1.65699,-0.8048 1.65699,-0.80481 1.40208,-0.29149 1.40208,-0.29149 h 1.56146 1.56145 l 1.40209,0.29905 1.40208,0.29905 1.356,0.59781 1.356,0.5978 1.0914,0.98602 1.09139,0.98601 v 0.77499 0.77498 l -0.64943,0.64944 -0.64943,0.64943 h -0.76854 -0.76854 l -1.16172,-0.92897 -1.16171,-0.92896 -1.30479,-0.39395 -1.3048,-0.39396 h -1.52955 -1.52955 l -1.43791,0.538 -1.43791,0.53798 -1.20104,1.05721 -1.20105,1.0572 -0.79347,1.58788 -0.79348,1.58789 -0.31432,1.51327 -0.31433,1.51328 0.15087,1.71979 0.15088,1.7198 0.4353,1.25523 0.4353,1.25524 1.17889,1.3112 1.17888,1.3112 1.50875,0.73974 1.50875,0.73975 2.51354,2.7e-4 2.51354,2.6e-4 1.19062,-0.63094 1.19063,-0.63095 0.63099,-0.4928 0.631,-0.49258 h 0.98164 0.98165 l 0.43788,0.48386 0.43788,0.48385 v 0.94784 0.94783 l -0.83147,0.69963 -0.83146,0.69964 -1.28014,0.64869 -1.28013,0.64869 -1.65871,0.39107 -1.65871,0.39108 -1.98438,-0.0135 -1.98437,-0.0135 z m 6.31469,-0.50235 1.75447,-0.37188 1.31666,-0.66721 1.31667,-0.6672 0.83147,-0.69963 0.83146,-0.69964 v -0.41866 -0.41867 l -0.43788,-0.48386 -0.43788,-0.48385 h -0.43604 -0.43603 l -1.04431,0.76726 -1.04431,0.76727 -1.39205,0.45479 -1.39204,0.45479 -2.44441,-0.11383 -2.44442,-0.11383 -1.22301,-0.54925 -1.22301,-0.54925 -1.08632,-0.98142 -1.08631,-0.98142 -0.56066,-0.90716 -0.56066,-0.90716 -0.36802,-1.38237 -0.36802,-1.38238 v -2.11667 -2.11666 l 0.35338,-1.32292 0.35338,-1.32292 0.58098,-1.1364 0.58098,-1.1364 0.96394,-1.06696 0.96394,-1.06697 1.20741,-0.60997 1.20742,-0.60997 1.53894,-0.31793 1.53894,-0.31792 1.36614,0.18789 1.36614,0.18789 1.06367,0.37418 1.06367,0.37418 0.92604,0.73397 0.92604,0.73398 0.34236,0.20438 0.34237,0.20437 0.64982,-0.42578 0.64982,-0.42578 v -0.60585 -0.60586 l -0.7276,-0.66885 -0.7276,-0.66885 -0.92605,-0.53871 -0.92604,-0.5387 -1.45521,-0.4879 -1.4552,-0.4879 -2.38125,0.0101 -2.38125,0.0101 -1.64413,0.64363 -1.64413,0.64363 -1.4095,1.02233 -1.4095,1.02232 -1.0167,1.35893 -1.0167,1.35892 -0.48418,1.07489 -0.48418,1.0749 -0.40643,1.56038 -0.40643,1.56038 v 2.04806 2.04805 l 0.2915,1.40209 0.29149,1.40208 0.79945,1.64611 0.79945,1.64611 1.37832,1.30356 1.37833,1.30357 1.40735,0.71315 1.40736,0.71316 1.61348,0.35104 1.61348,0.35103 1.05833,0.0164 1.05834,0.0164 z m -96.653897,-3.86235 -0.443177,-0.25858 -0.276506,-0.85786 -0.276505,-0.85785 -1.312691,-5.82084 -1.31269,-5.82083 -1.618581,-6.87917 -1.618578,-6.87916 -1.827154,-7.27604 -1.827157,-7.276046 -1.467205,-5.250662 -1.467207,-5.250661 -0.0177,-0.173297 -0.01768,-0.173297 -1.308528,4.7625 -1.308529,4.7625 -0.927468,3.307292 -0.927467,3.307291 -0.553752,0.46302 -0.553752,0.46302 h -6.005533 -6.005537 l -0.449225,-0.33073 -0.449226,-0.33073 -1.337143,-8.20208 -1.337146,-8.202083 -2.918462,-17.330208 -2.918466,-17.330208 -0.181983,-1.190625 -0.181983,-1.190625 -0.872582,4.101041 -0.87258,4.101042 -1.576142,7.672917 -1.576144,7.672916 -1.169032,5.027083 -1.169035,5.027084 -1.313513,5.953125 -1.313514,5.953125 -0.836213,4.098033 -0.836215,4.098033 -0.259271,0.16024 -0.25927,0.16024 -4.7898291,0.1735 -4.7898261,0.1735 -2.2726915,-0.002 -2.27268874,-0.002 -0.98397217,-0.27328 -0.98396949,-0.27327 -0.7653708,-0.64402 -0.7653708,-0.64402 -0.9984237,-1.925499 -0.9984237,-1.925502 -0.5595276,-0.620451 -0.559525,-0.620453 -0.7597463,-0.39515 -0.759746,-0.395153 -0.8670583,0.162661 -0.8670584,0.162661 -0.6998533,0.550505 -0.699853,0.550505 -1.174897,2.339359 -1.174896,2.339357 -1.260946,0.7412 -1.260948,0.74143 -6.251257,0.0832 -6.251256,0.0832 -0.561764,-0.71417 -0.561765,-0.71416 0.0039,-0.42734 0.0039,-0.42734 0.334116,-0.66146 0.334116,-0.66146 5.852616,-0.13229 5.852617,-0.132293 0.592434,-0.529167 0.592435,-0.529166 0.734895,-1.627799 0.734895,-1.627799 0.956462,-1.05869 0.956462,-1.058688 1.179984,-0.554659 1.1799832,-0.554657 1.9211128,0.0026 1.9211137,0.0026 1.3337301,0.621064 1.3337276,0.621064 0.73397,0.872273 0.7339674,0.872273 0.87967605,1.745224 0.87967607,1.745223 0.51910721,0.468509 0.5191072,0.468508 5.51249047,-0.07163 5.5124902,-0.07163 1.241251,-6.085416 1.241253,-6.085417 2.143529,-9.392708 2.143528,-9.392708 2.112171,-9.921875 2.112169,-9.921875 1.193247,-5.260676 1.193244,-5.260676 0.410369,-0.626303 0.410371,-0.626425 h 0.913842 0.913842 l 0.376671,0.595313 0.376671,0.595312 0.666515,3.96875 0.666517,3.96875 3.177834,18.653125 3.177833,18.653124 0.813478,5.027084 0.813474,5.027083 0.463767,3.175 0.463767,3.175 3.694364,-0.08045 3.694361,-0.08045 0.104564,-0.104566 0.104566,-0.104563 2.329042,-8.546237 2.329045,-8.546235 0.303739,-0.79375 0.303739,-0.79375 0.557665,-0.595312 0.557662,-0.595313 h 0.976532 0.97653 l 0.69302,0.545129 0.693018,0.545129 0.922793,2.9606 0.922792,2.9606 1.213663,4.233334 1.213659,4.233333 2.475021,9.789579 2.475018,9.78958 1.486064,6.74688 1.486064,6.74687 0.15992,0.66146 0.159917,0.66146 0.372991,-1.45521 0.372988,-1.45521 1.828509,-6.61458 1.828506,-6.61458 1.76176,-5.82084 1.761757,-5.82083 0.246888,-0.8599 0.246888,-0.85989 6.006833,-0.002 6.006835,-0.002 2.170391,-0.168955 2.17039,-0.168963 -1.467175,-1.61539 -1.467178,-1.615387 -2.202442,-2.910417 -2.20244,-2.910416 -1.441264,-2.38125 -1.441265,-2.38125 -0.962642,-1.912678 -0.962644,-1.912679 -0.805378,-2.02742 -0.805376,-2.027417 -0.636688,-2.542196 -0.636688,-2.542193 -0.307951,-2.910417 -0.307951,-2.910417 0.181684,-2.248958 0.181686,-2.248958 0.39727,-2.097109 0.397266,-2.097109 0.664853,-2.104633 0.664853,-2.104631 0.900041,-1.975006 0.900039,-1.975009 1.246769,-1.893043 1.24677,-1.893043 1.829787,-1.903336 1.829789,-1.903336 1.791346,-1.201862 1.791343,-1.201862 1.287237,-0.5564 1.287235,-0.5564 1.960552,-0.50559 1.960554,-0.505589 2.801939,0.0039 2.80196,0.0039 1.71979,0.398651 1.71979,0.398653 1.6115,0.63778 1.61149,0.637781 1.43121,0.84006 1.43122,0.840063 1.7969,1.447152 1.79691,1.447151 1.94231,2.33367 1.94231,2.333668 0.46522,0.787545 0.46522,0.787548 1.27701,-1.909296 1.27702,-1.909297 1.71089,-1.847922 1.71089,-1.847921 1.40662,-1.084953 1.40662,-1.084951 2.24895,-1.19412 2.24896,-1.194117 2.11667,-0.588473 2.11667,-0.588473 3.0427,-0.0065 3.04271,-0.0065 2.10474,0.593397 2.10475,0.593397 1.73564,0.912053 1.73563,0.912053 1.61907,1.310055 1.61908,1.310056 1.36434,1.798722 1.36435,1.798722 1.03358,2.116667 1.0336,2.116666 0.66274,2.300933 0.66274,2.300931 0.30687,2.850168 0.30686,2.850166 -0.18324,2.389526 -0.18325,2.389526 -0.38692,2.248958 -0.38693,2.248959 -1.02372,3.066616 -1.02371,3.066613 -1.64562,3.283387 -1.64562,3.283384 -1.59253,2.645833 -1.59251,2.645833 -2.5806,3.836458 -2.58061,3.836459 -2.75261,3.704172 -2.7526,3.70417 -2.01248,2.41301 -2.01248,2.41301 -0.73091,0.18344 -0.73091,0.18345 -0.68087,-0.50607 -0.68088,-0.50608 -0.0802,-0.93299 -0.0802,-0.93299 1.60285,-2.08344 1.60285,-2.08343 2.9995,-3.968752 2.9995,-3.96875 2.26188,-3.307292 2.26188,-3.307292 1.7702,-2.910416 1.7702,-2.910417 1.79484,-3.613451 1.79483,-3.613452 0.82686,-2.604257 0.82686,-2.604256 0.43004,-2.513542 0.43003,-2.513542 -0.14256,-3.307291 -0.14256,-3.307292 -0.54676,-2.116666 -0.54676,-2.116667 -1.22493,-2.488028 -1.22494,-2.48803 -2.01883,-2.029185 -2.01883,-2.029185 -1.2547,-0.688517 -1.25469,-0.68852 -1.52343,-0.57022 -1.52343,-0.570219 -2.27123,-0.147349 -2.27123,-0.147347 -1.98901,0.442513 -1.98901,0.442513 -1.82518,0.875311 -1.82518,0.875313 -1.98437,1.600001 -1.98438,1.600005 -1.37307,1.696669 -1.37308,1.696673 -1.27433,2.234842 -1.27433,2.234843 -0.3953,0.774909 -0.3953,0.774912 -0.77758,0.207761 -0.77759,0.207762 -0.6478,-0.321215 -0.64779,-0.321212 -1.65709,-2.645833 -1.65709,-2.645834 -2.07691,-2.231429 -2.0769,-2.231433 -1.5875,-1.178848 -1.5875,-1.178851 -1.86139,-0.891582 -1.8614,-0.891583 -1.97506,-0.420629 -1.97507,-0.420632 -2.12383,0.141391 -2.123818,0.141388 -1.776542,0.64485 -1.776542,0.644851 -1.514708,0.893545 -1.514705,0.893546 -1.873205,1.852083 -1.873205,1.852083 -1.371388,2.229065 -1.371391,2.229067 -0.826251,1.984748 -0.826255,1.98475 -0.673504,2.53306 -0.673505,2.53306 -0.02703,4.233333 -0.02703,4.233334 0.494831,2.116666 0.494829,2.116667 0.785911,2.248958 0.785913,2.248959 1.504929,2.910416 1.504928,2.910417 1.757985,2.645833 1.757984,2.645833 1.806345,2.246715 1.806344,2.246715 2.71198,2.810719 2.71198,2.810717 v 0.92084 0.92083 l -0.556629,0.50402 -0.556625,0.50403 -9.482722,0.0756 -9.482722,0.0756 -0.133589,0.45353 -0.133588,0.45354 -2.116603,7.27604 -2.1166,7.27604 -2.672379,9.65729 -2.672382,9.65729 -0.545518,0.46302 -0.545518,0.46302 -0.565999,-0.008 -0.566002,-0.008 z m 3.160596,-5.04869 1.129919,-4.06935 3.301912,-11.64167 3.30191,-11.64167 0.595916,-1.85208 0.595916,-1.85208 9.507254,-0.0695 9.507254,-0.0695 0.480103,-0.43449 0.480102,-0.43449 v -0.38785 -0.38786 l -3.017787,-3.130093 -3.017787,-3.130098 -2.34918,-3.121771 -2.349177,-3.121771 -1.390425,-2.303113 -1.390428,-2.303116 -1.297141,-2.723967 -1.297144,-2.723971 -0.687731,-2.116666 -0.687734,-2.116667 -0.41515,-2.38125 -0.41515,-2.38125 0.141404,-4.101041 0.141407,-4.101042 0.525542,-1.984375 0.525541,-1.984375 0.652034,-1.729163 0.652037,-1.729163 0.730276,-1.445837 0.730279,-1.445837 0.800807,-1.190625 0.800809,-1.190625 1.204365,-1.431123 1.204367,-1.431121 1.597253,-1.17711 1.597255,-1.177107 1.518637,-0.767644 1.518637,-0.767643 1.656363,-0.390528 1.656363,-0.390528 2.272783,-0.0039 2.27278,-0.0039 2.03641,0.520827 2.03642,0.520827 2.04947,1.066252 2.04947,1.066255 1.72126,1.521772 1.72126,1.521775 1.44507,1.665642 1.44508,1.665642 1.53502,2.4354 1.53502,2.435399 0.36081,0.365033 0.36082,0.365032 0.65461,-0.164296 0.65461,-0.164298 1.11839,-2.22626 1.11839,-2.226259 1.72308,-2.295869 1.72307,-2.295867 1.88413,-1.572484 1.88413,-1.572488 2.11667,-1.048806 2.11666,-1.048803 1.57695,-0.399505 1.57694,-0.399494 h 2.53465 2.53466 l 1.57694,0.404283 1.57695,0.404284 1.71979,0.852487 1.71979,0.852488 2.12538,2.116666 2.12539,2.116667 1.10153,2.129721 1.10154,2.129724 0.66562,2.296903 0.66561,2.296901 0.25408,2.48348 0.25408,2.483477 -0.22759,2.614895 -0.22757,2.614899 -0.41619,2.012659 -0.41619,2.012656 -0.63997,1.881579 -0.63996,1.881579 -0.9738,2.156751 -0.9738,2.156751 -1.71524,3.06537 -1.71524,3.06537 -2.25745,3.451349 -2.25743,3.451352 -2.18562,3.042708 -2.18563,3.042709 -3.10001,3.968745 -3.10002,3.96875 -0.27951,0.59424 -0.27951,0.59424 0.47986,0.53024 0.47986,0.53024 h 0.44848 0.44848 l 1.31046,-1.52135 1.31045,-1.52136 1.46295,-1.85208 1.46294,-1.85208 2.77515,-3.83646 2.77515,-3.836459 1.85554,-2.778125 1.85554,-2.778125 1.76012,-2.973795 1.76012,-2.973797 1.49285,-2.976674 1.49286,-2.976673 0.99839,-3.045362 0.99839,-3.045365 0.45723,-2.743428 0.45723,-2.743427 -0.14141,-4.003447 -0.14142,-4.003448 -0.57386,-2.110502 -0.57386,-2.110502 -0.76459,-1.796753 -0.76458,-1.796754 -1.17479,-1.816026 -1.17478,-1.816028 -1.45855,-1.458556 -1.45856,-1.458555 -1.22948,-0.845905 -1.22948,-0.845907 -1.70522,-0.773186 -1.70523,-0.773184 -1.65166,-0.389433 -1.65166,-0.389429 h -2.51355 -2.51354 l -1.71979,0.398669 -1.71979,0.398668 -2.64583,1.312257 -2.64584,1.312259 -1.97794,1.665028 -1.97795,1.665029 -1.61945,1.93213 -1.61945,1.932128 -0.90052,1.564306 -0.90052,1.564307 -0.26458,-0.0098 -0.26459,-0.0098 -0.92604,-1.46172 -0.92604,-1.461719 -1.85208,-2.14521 -1.85209,-2.14521 -1.85208,-1.410997 -1.85208,-1.410996 -1.98438,-1.030163 -1.98437,-1.030161 -1.98438,-0.619929 -1.98437,-0.619927 -3.3073,0.0083 -3.307287,0.0083 -1.5875,0.486905 -1.5875,0.486902 -1.566209,0.770369 -1.566206,0.770369 -1.608794,1.150815 -1.608791,1.150816 -1.49966,1.576142 -1.499661,1.576141 -1.495714,2.294625 -1.495713,2.294628 -1.063853,2.546102 -1.063855,2.546101 -0.66535,2.543844 -0.665351,2.543845 -0.13336,4.101041 -0.133358,4.101042 0.424939,2.4404 0.42494,2.440398 0.824634,2.586685 0.824635,2.586683 1.24691,2.645834 1.246907,2.645833 1.545228,2.513542 1.545224,2.513541 2.182406,2.910417 2.182407,2.910417 1.742678,1.894747 1.742676,1.894734 v 0.420358 0.42036 h -8.466667 -8.466666 v 0.10774 0.10775 l -1.476219,4.85319 -1.476219,4.85319 -2.056704,7.27604 -2.056702,7.27604 -0.766558,2.98312 -0.766557,2.98312 -0.37666,-0.0727 -0.376664,-0.0727 -0.613084,-2.91042 -0.613085,-2.91042 -1.080662,-4.7625 -1.080658,-4.7625 -2.076741,-8.33437 -2.076739,-8.334373 -0.824928,-3.042709 -0.824929,-3.042708 -1.597551,-5.423958 -1.597549,-5.423959 -0.375687,-0.586004 -0.375687,-0.586002 -0.562634,-0.301114 -0.562637,-0.301112 -0.613994,0.279755 -0.613998,0.279757 -0.416626,0.635852 -0.416626,0.635852 -2.470896,9.08323 -2.470894,9.083223 -0.499909,0.19625 -0.499911,0.19624 -3.754697,0.0186 -3.754699,0.0186 -0.13434,-0.21737 -0.134342,-0.21737 L 37.704643,95.3636 37.017575,90.619798 34.915818,78.184382 32.814063,65.748965 30.470106,52.016447 28.126152,38.283932 27.638549,37.927385 27.150943,37.570833 h -0.207915 -0.207912 l -0.403815,0.616299 -0.403815,0.616299 -1.209413,5.402972 -1.209413,5.402971 -2.87464,13.361458 -2.874642,13.361459 -1.699639,7.408333 -1.699638,7.408333 -0.896197,4.56316 -0.896196,4.563163 -6.1054431,7.9e-4 -6.10544029,8e-4 -0.54656037,-0.595315 -0.54655772,-0.595312 -0.80638382,-1.614221 -0.8063865,-1.614217 -0.6837601,-0.812604 -0.6837627,-0.812607 -1.3686551,-0.68203 -1.3686576,-0.681815 -1.3371129,0.0058 -1.3371131,0.0058 -1.1906247,0.538954 -1.190625,0.538954 -0.753062,0.712006 -0.753061,0.712007 -1.003483,1.984375 -1.003483,1.984375 -0.585709,0.529167 -0.58571,0.529163 -5.718553,0.0812 -5.718552,0.0812 -0.339715,0.28194 -0.339714,0.28192 v 0.58805 0.58805 l 0.513202,0.46444 0.513202,0.46445 5.638408,-0.0927 5.638406,-0.0927 1.190579,-0.70031 1.190578,-0.70031 1.322917,-2.46592 1.322916,-2.465917 0.926042,-0.627502 0.9260417,-0.627501 1.5216232,0.106463 1.5216222,0.106465 0.8184832,0.776846 0.8184806,0.776849 0.7979199,1.5875 0.7979198,1.587497 0.6459643,0.86018 0.645967,0.86017 0.7669318,0.3966 0.76693447,0.3966 H 7.0982147 14.222706 l 0.288906,-0.34812 0.288907,-0.34811 1.323834,-6.400067 1.323835,-6.40007 1.875367,-8.134633 1.875364,-8.13463 2.085467,-10.054167 2.085467,-10.054167 0.590065,-2.711979 0.590066,-2.711979 h 0.351049 0.35105 v 0.246965 0.246965 l 1.047427,6.169181 1.047427,6.169181 2.242592,13.361458 2.242593,13.361458 1.222576,7.540625 1.222576,7.540629 0.432766,0.33073 0.432765,0.33073 h 5.47637 5.476367 l 0.552154,-0.46303 0.552153,-0.46302 2.31216,-8.400518 2.312162,-8.400521 h 0.332605 0.332607 l 0.391502,1.389063 0.391498,1.389062 1.052648,3.704167 1.052647,3.704166 1.597904,6.217711 1.597903,6.21771 2.757974,11.77395 2.757975,11.77396 0.747183,3.29867 0.747186,3.29868 0.491035,0.49103 0.491032,0.49104 0.575919,-0.38181 0.575918,-0.38181 z m 51.429621,-10.42651 -0.7946,-0.66861 -0.1766,-0.80407 -0.17661,-0.80407 0.30733,-0.74196 0.30733,-0.74195 0.65602,-0.2989 0.65603,-0.29891 h 0.92562 0.92561 l 0.64943,0.64943 0.64944,0.64944 v 1.09071 1.09071 l -0.7734,0.7734 -0.7734,0.77339 h -0.7938 -0.7938 z m 2.62643,-0.63395 0.7734,-0.7734 v -0.5202 -0.52021 l -0.46302,-0.5472 -0.46302,-0.54719 -0.67291,-0.15853 -0.67291,-0.15853 -0.71615,0.56332 -0.71616,0.56333 v 0.66261 0.6626 l 0.7734,0.7734 0.7734,0.7734 h 0.30529 0.30529 z m 97.88747,-14.05444 -1.17864,-0.24431 -1.38295,-0.67661 -1.38295,-0.67662 -0.85124,-0.96951 -0.85124,-0.96951 -0.68821,-1.46728 -0.68821,-1.46728 v -3.042708 -3.042708 l 0.63018,-1.394384 0.63018,-1.394383 1.41729,-1.295318 1.41728,-1.295318 1.39212,-0.48392 1.39211,-0.48392 2.11667,0.02955 2.11667,0.02955 1.49725,0.574378 1.49724,0.574379 0.32109,0.386884 0.32108,0.386885 h 0.23219 0.23219 v -6.429375 -6.429375 l 0.3175,-0.3175 0.3175,-0.3175 h 1.25111 1.25108 l 0.41579,0.415774 0.41577,0.415774 v 14.347976 14.347979 l -0.3175,0.3175 -0.3175,0.3175 h -1.24836 -1.24837 l -0.41851,-0.1606 -0.41851,-0.1606 v -0.79771 -0.79772 l -0.59532,0.43811 -0.59531,0.43811 -1.32291,0.63631 -1.32292,0.63631 -1.5875,0.13275 -1.5875,0.13276 z m 5.27968,-1.16918 0.92604,-0.47965 0.96412,-0.7575 0.96411,-0.7575 h 0.29266 0.29265 v 0.89365 0.89364 l 0.3796,0.31504 0.3796,0.31503 0.87717,-0.0842 0.87717,-0.0842 0.0684,-14.368235 0.0684,-14.368237 -1.25907,0.08074 -1.25904,0.08073 -0.0705,6.945313 -0.0705,6.945312 -0.32634,-0.0046 -0.32633,-0.0046 -0.60478,-0.637866 -0.60478,-0.637868 -1.23637,-0.598516 -1.23637,-0.598517 -2.15715,-0.11322 -2.15716,-0.113224 -1.62343,0.728552 -1.62342,0.728548 -1.08258,1.174459 -1.08258,1.174459 -0.56323,1.237105 -0.56323,1.237104 -0.008,2.518185 -0.008,2.518186 0.87101,1.77019 0.87101,1.77018 1.05842,0.90597 1.05842,0.90597 1.37786,0.559 1.37787,0.55899 2.11666,-0.0844 2.11667,-0.0844 z m -5.29167,-2.07761 -0.92604,-0.29351 -1.19795,-1.20083 -1.19794,-1.20082 -0.32341,-1.08903 -0.32341,-1.08903 0.006,-1.689098 0.006,-1.689095 0.48999,-1.058333 0.48999,-1.058334 0.76097,-0.713568 0.76097,-0.713568 0.98369,-0.410911 0.98366,-0.410911 h 1.96266 1.96266 l 1.41519,0.739304 1.41519,0.739304 0.7748,1.253202 0.77479,1.253199 0.006,2.306976 0.006,2.306973 -0.55417,1.05833 -0.55417,1.05834 -0.75183,0.71356 -0.75184,0.71357 -0.98369,0.41091 -0.98371,0.41092 -1.66214,-0.027 -1.66214,-0.027 z m 4.25063,-0.44663 0.94333,-0.26205 1.08638,-0.9299 1.08637,-0.9299 0.44833,-1.17393 0.44833,-1.17394 -0.10335,-1.829063 -0.10335,-1.829064 -0.70328,-1.06272 -0.70327,-1.062718 -1.39263,-0.693978 -1.39264,-0.693978 h -1.22383 -1.22383 l -1.22574,0.417652 -1.22575,0.41765 -0.92045,1.018831 -0.92045,1.018829 -0.28071,1.010915 -0.28072,1.010914 -0.002,0.952707 -0.002,0.952703 0.30112,0.89938 0.30112,0.89938 0.64254,0.86534 0.64253,0.86534 0.64625,0.42343 0.64624,0.42344 0.98979,0.35325 0.98978,0.35326 0.79375,0.0101 0.79375,0.0101 z m -70.39646,3.45717 -0.66146,-0.20193 -1.05833,-0.54666 -1.05833,-0.54665 -0.97836,-1.01461 -0.97836,-1.0146 -0.74144,-1.5875 -0.74143,-1.5875 V 99.615624 96.96979 l 0.7039,-1.50155 0.7039,-1.501547 1.06437,-1.154711 1.06438,-1.154708 1.17784,-0.588242 1.17784,-0.588241 1.53533,-0.283823 1.53534,-0.283822 1.20709,0.178687 1.2071,0.178684 1.24843,0.534365 1.24845,0.534363 0.30531,0.367877 0.30531,0.367877 h 0.21461 0.21461 l 0.0837,-0.727605 0.0837,-0.727604 1.65538,-0.07882 1.65538,-0.07881 0.26285,0.69135 0.26285,0.691354 v 8.131942 8.131944 l -0.3175,0.3175 -0.3175,0.3175 h -1.24836 -1.24836 l -0.41851,-0.1606 -0.41852,-0.1606 v -0.7692 -0.76919 l -1.03265,0.68338 -1.03266,0.68337 -1.25835,0.37871 -1.25836,0.37871 -1.74388,-0.0228 -1.74389,-0.0228 z m 4.96787,-0.68555 1.35975,-0.4038 1.2041,-0.91911 1.20411,-0.91912 h 0.26229 0.2623 v 0.89365 0.89364 l 0.37959,0.31504 0.37959,0.31503 0.87718,-0.0842 0.87718,-0.0842 0.0699,-8.394549 0.0699,-8.394549 -0.63826,-0.160192 -0.63825,-0.160192 -0.62223,0.08807 -0.62222,0.08807 -0.0814,1.124479 -0.0814,1.124479 h -0.23574 -0.23574 l -0.74123,-0.688665 -0.74124,-0.688666 -1.05833,-0.545793 -1.05833,-0.545793 -2.01271,-0.120263 -2.01271,-0.120264 -1.64072,0.736309 -1.64071,0.736309 -1.07996,1.213726 -1.07995,1.213725 -0.68313,1.455209 -0.68312,1.455208 0.004,2.116667 0.004,2.116665 0.5921,1.30835 0.59209,1.30835 0.66115,0.86682 0.66116,0.86683 0.94022,0.71714 0.94022,0.71714 1.36725,0.47248 1.36724,0.47249 1.07646,0.009 1.07646,0.009 z m -3.55493,-2.21648 -0.83602,-0.21353 -0.88011,-0.51401 -0.88011,-0.51401 -0.72307,-1.04565 -0.72308,-1.04564 -0.32751,-1.25623 -0.3275,-1.25624 0.31157,-1.485432 0.31157,-1.485437 0.67624,-1.1539 0.67623,-1.153904 1.22183,-0.716039 1.22182,-0.716039 1.35291,-0.112194 1.3529,-0.112194 1.18809,0.319918 1.18808,0.319919 1.22789,1.228886 1.22788,1.228886 0.42623,1.437085 0.42622,1.437084 -0.0148,0.811874 -0.0148,0.811877 -0.46484,1.14531 -0.46485,1.14532 -0.72278,0.90584 -0.72279,0.90584 -1.02696,0.52392 -1.02697,0.52392 -1.40864,0.12415 -1.40864,0.12415 z m 3.81747,-0.96422 0.98008,-0.4095 0.62511,-0.58269 0.62511,-0.58268 0.65732,-1.29149 0.65732,-1.29148 v -1.11164 -1.111639 l -0.43184,-1.036457 -0.43185,-1.03646 -0.96186,-0.987113 -0.96187,-0.987113 -1.28991,-0.428442 -1.28992,-0.428443 -0.9673,0.181467 -0.96731,0.181467 -0.68668,0.3551 -0.68668,0.355098 -0.83939,0.858538 -0.83938,0.858539 -0.43376,1.135803 -0.43377,1.135806 0.11559,1.597999 0.11559,1.59799 0.78777,1.12087 0.78777,1.12086 1.04733,0.5932 1.04733,0.59321 1.39756,0.004 1.39756,0.004 z m 15.25478,3.56943 -1.34294,-0.51666 -1.09335,-0.93586 -1.09334,-0.93587 -0.87101,-1.76895 -0.87101,-1.76895 V 99.753792 96.96979 l 0.7039,-1.50155 0.7039,-1.501547 1.11074,-1.205016 1.11075,-1.205013 1.37322,-0.671854 1.37322,-0.671854 1.72234,-0.160834 1.72234,-0.160835 1.57209,0.453937 1.57209,0.453938 0.85989,0.651383 0.8599,0.651383 v -6.248567 -6.248566 l 0.27389,-0.511773 0.27389,-0.511773 h 1.19871 1.19871 l 0.51177,0.273891 0.51178,0.273894 v 14.622148 14.622148 l -0.3175,0.3175 -0.3175,0.3175 h -1.2511 -1.2511 l -0.41578,-0.41577 -0.41577,-0.41578 v -0.52828 -0.52829 l -0.81291,0.57885 -0.81292,0.57884 -1.21351,0.36522 -1.21351,0.36521 -2.00847,-0.0138 -2.00847,-0.0138 z m 7.11774,-0.78402 1.24189,-0.62024 0.43527,-0.48096 0.43526,-0.48095 h 0.49817 0.49818 l -0.0512,0.59531 -0.0512,0.59531 0.0411,0.47752 0.0411,0.47751 1.25677,-0.0806 1.25677,-0.0806 v -14.2875 -14.2875 l -1.25677,-0.08064 -1.25677,-0.08064 v 7.025955 7.025954 h -0.35076 -0.35075 l -0.64144,-0.696476 -0.64143,-0.696473 -1.32291,-0.623858 -1.32292,-0.623856 -1.99857,-0.0026 -1.99857,-0.0026 -1.35289,0.674172 -1.35289,0.674174 -1.10402,1.197716 -1.10401,1.197716 -0.61861,1.369255 -0.6186,1.369259 -0.18145,1.256527 -0.18144,1.256525 0.32336,1.71375 0.32336,1.71374 0.83112,1.37367 0.83113,1.37367 0.98027,0.78591 0.98027,0.78592 1.40098,0.49995 1.40098,0.49996 1.86957,-0.0968 1.86958,-0.0969 z m -5.12954,-1.92875 -1.20682,-0.33999 -0.78489,-0.55888 -0.78488,-0.55889 -0.57163,-1.14834 -0.57163,-1.14835 -0.17618,-1.3397 -0.17619,-1.339703 0.45163,-1.609592 0.45163,-1.60959 0.76622,-0.929553 0.76621,-0.929553 1.14219,-0.552923 1.14219,-0.552924 1.7024,0.0058 1.7024,0.0058 1.06061,0.481822 1.0606,0.481822 0.84569,0.963189 0.84569,0.963189 0.30731,1.0257 0.3073,1.025697 -0.10003,1.981019 -0.10004,1.98102 -0.79301,1.28266 -0.79301,1.28266 -1.18826,0.60496 -1.18826,0.60496 -1.45521,0.13383 -1.45521,0.13382 z m 5.19561,-1.32041 1.07836,-0.72354 0.59489,-1.05845 0.59489,-1.05846 0.14181,-1.38429 0.14181,-1.384296 -0.30485,-1.127954 -0.30484,-1.127953 -0.8465,-0.964102 -0.84649,-0.964102 -1.0606,-0.481822 -1.0606,-0.481822 -0.95271,-0.0058 -0.9527,-0.0058 -0.89938,0.301123 -0.89938,0.301125 -0.88837,0.660098 -0.88837,0.660101 -0.6304,1.353881 -0.6304,1.353881 0.003,1.455208 0.003,1.455204 0.49324,1.08612 0.49325,1.08612 0.62542,0.59828 0.62542,0.59828 0.79375,0.36956 0.79375,0.36957 1.85209,-0.0783 1.85208,-0.0783 z m 10.57865,4.15811 -0.41931,-0.41931 0.0697,-8.764192 0.0697,-8.764188 0.92604,-0.20247 0.92604,-0.202469 0.75045,0.151593 0.75044,0.151593 0.25162,0.721807 0.25163,0.721807 1.48261,-0.747848 1.48261,-0.747844 h 1.39903 1.39902 l 0.41578,0.415774 0.41577,0.415774 v 1.139328 1.13933 l -0.38732,0.321445 -0.38731,0.321445 -1.73835,0.215585 -1.73835,0.215585 -0.64695,0.4239 -0.64696,0.423902 -0.46852,0.857403 -0.46853,0.857404 -0.0796,5.556246 -0.0796,5.55625 -0.43395,0.33073 -0.43395,0.33073 h -1.12116 -1.12115 z m 2.88523,-0.96975 0.13255,-0.59531 0.0709,-5.30423 0.0709,-5.304221 0.4774,-0.727678 0.4774,-0.727678 0.81309,-0.494469 0.81309,-0.494472 1.61993,-0.183827 1.61993,-0.18383 0.33072,-0.267507 0.33073,-0.26751 v -0.542081 -0.542083 l -0.43788,-0.483855 -0.43788,-0.483854 -0.81889,0.0058 -0.81889,0.0058 -1.05833,0.482447 -1.05833,0.482446 -0.83195,0.702368 -0.83194,0.702347 h -0.27733 -0.27732 l -0.0814,-1.124479 -0.0813,-1.124479 -1.03141,-0.08445 -1.0314,-0.08446 -0.22132,0.349038 -0.22131,0.349039 -0.004,7.849713 -0.004,7.849715 0.1606,0.41852 0.1606,0.41851 h 1.15728 1.15727 z m 10.19825,0.59897 -0.29432,-0.54993 0.08,-8.349512 0.08,-8.349517 0.62462,-0.505473 0.62462,-0.505476 h 0.73513 0.73513 l 0.56487,0.463021 0.56487,0.463021 -0.0725,8.863541 -0.0725,8.863545 -1.6378,0.0784 -1.6378,0.0784 z m 3.11071,-8.438614 0.07,-8.302665 -0.3008,-0.36244 -0.30079,-0.362439 h -0.72896 -0.72896 l -0.29558,0.356161 -0.29559,0.356161 -0.17495,7.786206 -0.17496,7.78621 0.32286,0.60326 0.32286,0.60326 1.10747,-0.0805 1.10748,-0.0805 z m -2.21883,-11.530812 -0.82595,-0.353057 -0.43082,-0.615085 -0.43082,-0.615082 v -0.720125 -0.720124 l 0.59572,-0.692573 0.59573,-0.692574 1.07085,-0.143629 1.07084,-0.143631 0.84697,0.712676 0.84697,0.712679 v 1.020059 1.020058 l -0.59531,0.649971 -0.59531,0.649967 -0.66146,0.141764 -0.66146,0.141761 z m 2.16089,-1.056582 0.64943,-0.64943 v -0.394147 -0.394147 l -0.6101,-0.709287 -0.6101,-0.709285 h -0.76417 -0.76417 l -0.58815,0.683763 -0.58815,0.683763 0.14287,0.546317 0.14286,0.546319 0.66461,0.522782 0.66462,0.522785 h 0.50551 0.50551 z m -82.25184,-2.624346 -1.27733,-0.359021 -1.09766,-0.77147 -1.09767,-0.771469 -0.7473,-1.208723 -0.7473,-1.208722 -0.3803,-1.42893 -0.3803,-1.428927 -0.003,-2.14049 -0.003,-2.140487 0.51114,-1.998528 0.51114,-1.998527 0.78391,-1.549527 0.78392,-1.549524 1.05831,-1.199542 1.05831,-1.199541 1.28465,-0.691997 1.28466,-0.691994 1.50423,-0.306477 1.50422,-0.30648 1.00932,0.189013 1.00932,0.189016 0.83353,0.34789 0.83353,0.34789 0.42324,0.42324 0.42324,0.423238 v 0.739169 0.73917 l -0.54837,0.69714 -0.54836,0.69714 -0.7084,-0.0094 -0.7084,-0.0094 -0.66146,-0.378124 -0.66145,-0.378124 -0.9028,-0.0094 -0.90279,-0.0094 -1.16862,0.684856 -1.16862,0.684855 -1.03744,1.605124 -1.03744,1.605121 v 0.198144 0.198144 l 1.38906,-0.53136 1.38906,-0.531363 1.50245,0.133101 1.50244,0.133102 1.35523,0.737605 1.35522,0.737603 0.79156,1.075139 0.79156,1.075137 0.41814,1.436188 0.41814,1.43619 -0.1364,1.504235 -0.13639,1.504236 -0.52386,1.18427 -0.52386,1.184267 -0.99161,0.991611 -0.99161,0.991608 -1.20026,0.51449 -1.20025,0.51449 -1.47983,0.121724 -1.47983,0.121722 z m 4.98148,-1.054322 1.32292,-0.618766 0.89319,-0.900004 0.89319,-0.900004 0.55177,-1.190625 0.55176,-1.190625 -0.0236,-1.587499 -0.0236,-1.5875 -0.43517,-0.998083 -0.43517,-0.99808 -0.98617,-1.09483 -0.98618,-1.09483 -1.13085,-0.501975 -1.13085,-0.501975 -1.28762,-0.01 -1.28763,-0.01 -1.1534,0.547751 -1.1534,0.547751 -0.45033,0.327962 -0.45033,0.327959 -0.18737,-0.187373 -0.18737,-0.187375 0.3132,-1.045388 0.31321,-1.045389 1.11825,-1.664886 1.11824,-1.664882 1.05322,-0.58578 1.05321,-0.585777 0.97952,-0.165489 0.97951,-0.165489 1.2499,0.552889 1.24989,0.552887 0.46131,-0.417481 0.46131,-0.41748 0.13512,-0.516687 0.13512,-0.516683 -0.39969,-0.399685 -0.39968,-0.399688 -0.932,-0.389408 -0.93201,-0.389411 h -1.28068 -1.28068 l -1.47752,0.55281 -1.47752,0.552812 -1.4125,1.37904 -1.4125,1.379043 -0.83006,1.644335 -0.83005,1.644335 -0.55269,2.310791 -0.55268,2.310792 0.13844,1.852083 0.13843,1.852083 0.54716,1.455209 0.54715,1.455208 0.7987,0.968314 0.79871,0.968314 1.37528,0.685332 1.37528,0.685332 1.6017,-0.0026 1.6017,-0.0026 z m -4.10938,-2.006299 -0.6698,-0.203501 -0.602,-0.36907 -0.602,-0.36907 -0.47943,-0.79375 -0.47943,-0.79375 -0.16755,-0.895723 -0.16755,-0.895723 0.28807,-1.088652 0.28807,-1.088652 0.70467,-0.751226 0.70467,-0.751224 0.71446,-0.373255 0.71447,-0.373253 1.13761,5.29e-4 1.13762,5.29e-4 0.92604,0.462608 0.92605,0.462611 0.59531,1.180541 0.59531,1.180542 -0.004,1.200708 -0.004,1.200709 -0.59205,1.058333 -0.59205,1.058333 -1.17946,0.595313 -1.17945,0.595312 -0.67154,-0.02275 -0.67154,-0.02275 z m 3.1352,-1.081979 0.87789,-0.535233 0.5378,-1.215782 0.5378,-1.215782 -0.15947,-0.797335 -0.15947,-0.797335 -0.53279,-0.862076 -0.53279,-0.862076 -0.9476,-0.449662 -0.94759,-0.449662 -0.89253,0.167439 -0.89253,0.167439 -0.81104,0.682448 -0.81104,0.682445 -0.38738,0.749096 -0.38737,0.749094 v 0.877162 0.877163 l 0.46302,0.860816 0.46302,0.860814 0.79375,0.522378 0.79375,0.522375 1.05834,7.93e-4 1.05833,7.94e-4 z m -27.29523,3.757525 -0.43788,-0.483854 v -0.939218 -0.93922 l 3.05974,-3.27328 3.05974,-3.273282 1.41517,-1.852083 1.41518,-1.852083 0.56424,-1.096399 0.56425,-1.096397 0.15016,-0.925332 0.15017,-0.92533 -0.88985,-0.964004 -0.88984,-0.964007 -0.95732,-0.15208 -0.95732,-0.15208 -0.97283,0.46164 -0.97284,0.46164 -0.79453,1.154821 -0.79454,1.154819 h -1.18446 -1.18447 l -0.27942,-0.727604 -0.27942,-0.727604 0.14448,-0.905693 0.14447,-0.905692 0.74339,-0.918483 0.74339,-0.918485 1.41841,-0.801346 1.4184,-0.801346 2.05243,-0.118811 2.05244,-0.118814 1.41737,0.652378 1.41737,0.652378 0.85546,0.880879 0.85547,0.880883 0.43286,1.133433 0.43286,1.133432 -0.10686,1.678287 -0.10687,1.678284 -0.71413,1.442066 -0.71413,1.442067 -1.34993,1.78812 -1.34994,1.788123 -1.98915,2.114481 -1.98915,2.114484 h 4.08752 4.08752 l 0.43788,0.483854 0.43788,0.483854 v 0.930346 0.930347 l -0.48385,0.437883 -0.48386,0.437882 h -6.61888 -6.61889 z m 13.63035,-0.483195 0.48385,-0.437883 v -0.473154 -0.473157 l -0.58803,-0.41188 -0.58804,-0.411877 h -4.17446 -4.17447 v -0.290994 -0.290994 l 2.27123,-2.412714 2.27123,-2.412717 1.28249,-1.712513 1.28249,-1.712515 0.67102,-1.370394 0.67102,-1.370396 0.1659,-1.037518 0.16591,-1.037516 -0.30384,-1.128361 -0.30383,-1.128358 -0.95991,-1.062498 -0.9599,-1.062498 -1.02833,-0.524615 -1.02833,-0.524616 -1.27022,-0.15044 -1.27022,-0.150439 -1.33842,0.44455 -1.33841,0.44455 -1.06795,0.773616 -1.06794,0.773615 -0.42187,0.815813 -0.42188,0.815817 0.0816,0.843047 0.0817,0.843047 0.70009,0.08107 0.7001,0.08106 0.76006,-1.139399 0.76007,-1.139399 0.92109,-0.477538 0.92109,-0.477541 1.55969,0.100322 1.5597,0.100322 0.8877,0.968645 0.8877,0.968644 -0.006,1.260655 -0.006,1.260658 -0.48297,1.058333 -0.48296,1.058334 -1.60596,2.116666 -1.60595,2.116667 -3.06153,3.307291 -3.06153,3.307292 -0.003,0.376042 -0.003,0.376042 0.43788,0.483854 0.43788,0.483854 h 6.08972 6.08972 z"
       id="path1" />
  </g>
</svg>
