<?xml version="1.0" encoding="utf-8"?>
<!-- Generator: Adobe Illustrator 25.2.0, SVG Export Plug-In . SVG Version: 6.00 Build 0)  -->
<svg version="1.1"
	 id="svg1" xmlns:inkscape="http://www.inkscape.org/namespaces/inkscape" xmlns:sodipodi="http://sodipodi.sourceforge.net/DTD/sodipodi-0.dtd" xmlns:svg="http://www.w3.org/2000/svg"
	 xmlns="http://www.w3.org/2000/svg" xmlns:xlink="http://www.w3.org/1999/xlink" x="0px" y="0px" viewBox="0 0 756.2 303"
	 style="enable-background:new 0 0 756.2 303;" xml:space="preserve">
<style type="text/css">
	.st0{fill:#FF0000;}
	.st1{display:none;enable-background:new    ;}
	.st2{font-family:'ArialRoundedMTBold';}
	.st3{font-size:100.8038px;}
	.st4{font-family:'BerlinSansFB-Reg';}
	.st5{font-size:110.2268px;}
	.st6{fill:#939393;}
	.st7{font-size:95.1848px;}
</style>
<sodipodi:namedview  bordercolor="#000000" borderopacity="0.25" id="namedview1" inkscape:current-layer="layer1" inkscape:cx="506.68267" inkscape:cy="421.12927" inkscape:deskcolor="#d1d1d1" inkscape:document-units="mm" inkscape:pagecheckerboard="0" inkscape:pageopacity="0.0" inkscape:showpageshadow="2" inkscape:window-height="1011" inkscape:window-maximized="1" inkscape:window-width="1920" inkscape:window-x="0" inkscape:window-y="0" inkscape:zoom="0.67793911" pagecolor="#ffffff">
	</sodipodi:namedview>
<g id="layer1" transform="translate(29.104172,-37.040811)" inkscape:groupmode="layer" inkscape:label="Capa 1">
	<path id="path1" class="st0" d="M245.3,326.5l-1.3-0.7l-0.8-2.4l-0.8-2.4l-3.7-16.5L235,288l-4.6-19.5l-4.6-19.5l-5.2-20.6
		l-5.2-20.6l-4.2-14.9L207,178l-0.1-0.5l-0.1-0.5l-3.7,13.5l-3.7,13.5l-2.6,9.4l-2.6,9.4l-1.6,1.3l-1.6,1.3h-17h-17l-1.3-0.9
		l-1.3-0.9l-3.8-23.2l-3.8-23.2l-8.3-49.1L130.2,79l-0.5-3.4l-0.5-3.4L127,83.5l-2.5,11.6l-4.5,21.8l-4.5,21.7l-3.3,14.3l-3.3,14.3
		l-3.7,16.9l-3.7,16.9l-2.4,11.6l-2.4,11.6l-0.7,0.5l-0.7,0.5l-13.6,0.5L68.2,226h-6.4h-6.4l-2.8-0.8l-2.8-0.8l-2.2-1.8l-2.2-1.8
		l-2.8-5.5l-2.8-5.5l-1.6-1.8l-1.6-1.8l-2.2-1.1l-2.2-1.1l-2.5,0.5l-2.5,0.5l-2,1.6l-2,1.6l-3.3,6.6l-3.3,6.6l-3.6,2.1l-3.6,2.1
		l-17.7,0.2L-26,226l-1.6-2l-1.6-2v-1.2v-1.2l0.9-1.9l0.9-1.9l16.6-0.4L6,215.2l1.7-1.5l1.7-1.5l2.1-4.6l2.1-4.6l2.7-3l2.7-3
		l3.3-1.6l3.3-1.6H31h5.4l3.8,1.8l3.8,1.8l2.1,2.5l2.1,2.5l2.5,4.9l2.5,4.9l1.5,1.3l1.5,1.3l15.6-0.2l15.6-0.2l3.5-17.3l3.5-17.3
		l6.1-26.6l6.1-26.6l6-28.1l6-28.1l3.4-14.9l3.4-14.9l1.2-1.8l1.2-1.8h2.6h2.6l1.1,1.7l1.1,1.7l1.9,11.3L139,63l9,52.9l9,52.9
		l2.3,14.3l2.3,14.3l1.3,9l1.3,9l10.5-0.2l10.5-0.2l0.3-0.3l0.3-0.3l6.6-24.2L199,166l0.9-2.2l0.9-2.2l1.6-1.7l1.6-1.7h2.8h2.8
		l2,1.5l2,1.5l2.6,8.4l2.6,8.4l3.4,12l3.4,12l7,27.8l7,27.8l4.2,19.1l4.2,19.1l0.5,1.9l0.5,1.9l1.1-4.1l1.1-4.1l5.2-18.7l5.2-18.7
		l5-16.5l5-16.5l0.7-2.4l0.7-2.4h17h17l6.2-0.5l6.2-0.5l-4.2-4.6L311,206l-6.2-8.3l-6.2-8.2l-4.1-6.8l-4.1-6.8l-2.7-5.4l-2.7-5.4
		l-2.3-5.7l-2.3-5.7l-1.8-7.2l-1.8-7.2l-0.9-8.2l-0.9-8.3l0.5-6.4l0.5-6.4l1.1-5.9l1.1-5.9l1.9-6l1.9-6l2.6-5.6l2.6-5.6l3.5-5.4
		l3.5-5.4l5.2-5.4l5.2-5.4l5.1-3.4l5.1-3.4l3.6-1.6l3.6-1.6l5.6-1.4l5.6-1.4h7.9h7.9l4.9,1.1l4.9,1.1l4.6,1.8l4.6,1.8l4.1,2.4
		l4.1,2.4l5.1,4.1l5.1,4.1l5.5,6.6l5.5,6.6l1.3,2.2L400,77l3.6-5.4l3.6-5.4L412,61l4.8-5.2l4-3.1l4-3.1l6.4-3.4l6.4-3.4l6-1.7l6-1.7
		h8.6h8.6l6,1.7l6,1.7l4.9,2.6l4.9,2.6l4.6,3.7l4.6,3.7l3.9,5.1l3.9,5.1l2.9,6l2.9,6l1.9,6.5l1.9,6.5l0.9,8.1l0.9,8.1l-0.5,6.8
		l-0.5,6.8l-1.1,6.4l-1.1,6.4l-2.9,8.7l-2.9,8.7l-4.7,9.3l-4.7,9.3l-4.5,7.5l-4.5,7.5l-7.3,10.9L475,206l-7.8,10.5l-7.8,10.5
		l-5.7,6.8l-5.7,6.8l-2.1,0.5l-2.1,0.5l-1.9-1.4l-1.9-1.4l-0.2-2.6l-0.2-2.6l4.5-5.9l4.5-5.9l8.5-11.3l8.5-11.3l6.4-9.4l6.4-9.4
		l5-8.3l5-8.3l5.1-10.2l5.1-10.2l2.3-7.4l2.3-7.4l1.2-7.1l1.2-7.1l-0.4-9.4l-0.4-9.4l-1.5-6l-1.5-6l-3.5-7.1l-3.5-7.1l-5.7-5.8
		l-5.7-5.8l-3.6-2l-3.6-2l-4.3-1.6l-4.3-1.6l-6.4-0.4l-6.4-0.4l-5.6,1.3l-5.6,1.3l-5.2,2.5l-5.2,2.5l-5.6,4.5l-5.6,4.5l-3.9,4.8
		l-3.9,4.8l-3.6,6.3l-3.6,6.3l-1.1,2.2l-1.1,2.2l-2.2,0.6l-2.2,0.6l-1.8-0.9l-1.8-0.9l-4.7-7.5l-4.7-7.5l-5.9-6.3l-5.9-6.3l-4.5-3.3
		l-4.5-3.3l-5.3-2.5l-5.3-2.5l-5.6-1.2l-5.6-1.2l-6,0.4l-6,0.4l-5,1.8l-5,1.8l-4.3,2.5l-4.3,2.5l-5.3,5.2l-5.3,5.3l-3.9,6.3
		l-3.9,6.3l-2.3,5.6l-2.3,5.6l-1.9,7.2l-1.9,7.2l-0.1,12l-0.1,12l1.4,6l1.4,6l2.2,6.4l2.2,6.4l4.3,8.3l4.3,8.3l5,7.5l5,7.5l5.1,6.4
		l5.1,6.4l7.7,8l7.7,8v2.6v2.6l-1.6,1.4l-1.6,1.4l-26.9,0.2l-26.9,0.2l-0.4,1.3l-0.4,1.3l-6,20.6l-6,20.6l-7.6,27.4l-7.6,27.4
		l-1.5,1.3l-1.5,1.3H249h-1.6L245.3,326.5z"/>
</g>
<text transform="matrix(0.9484 0 0 1 350.5596 300.4424)" class="st1 st2 st3">CinC</text>
<text transform="matrix(0.9923 0 0 1 506.25 202.4946)" class="st4 st5">adrid</text>
<text transform="matrix(1.1081 0 0 1 533.6705 298.8237)" class="st6 st4 st3">CinC</text>
<text transform="matrix(1.1081 0 0 1 378.1087 134.6681)" class="st0 st4 st7">26</text>
</svg>
