<?xml version="1.0" encoding="UTF-8" standalone="no"?>
<!-- Generator: Adobe Illustrator 25.2.0, SVG Export Plug-In . SVG Version: 6.00 Build 0)  -->

<svg
   version="1.1"
   id="svg1"
   inkscape:version="1.4.2 (ebf0e940d0, 2025-05-08)"
   x="0px"
   y="0px"
   viewBox="0 0 777.65466 297.47061"
   xml:space="preserve"
   sodipodi:docname="cinc_logo_32.svg"
   width="777.65466"
   height="297.47061"
   xmlns:inkscape="http://www.inkscape.org/namespaces/inkscape"
   xmlns:sodipodi="http://sodipodi.sourceforge.net/DTD/sodipodi-0.dtd"
   xmlns="http://www.w3.org/2000/svg"
   xmlns:svg="http://www.w3.org/2000/svg"><defs
   id="defs4"><rect
     x="361.38939"
     y="72.277878"
     width="115.05458"
     height="78.178112"
     id="rect6" /></defs>
<style
   type="text/css"
   id="style1">
	.st0{fill:#020202;}
	.st1{display:none;}
	.st2{font-family:'ArialRoundedMTBold';}
	.st3{font-size:100.8038px;}
	.st4{font-size:89.8255px;}
	.st5{font-family:'BerlinSansFB-Reg';}
	.st6{font-size:110.2268px;}
</style>
<sodipodi:namedview
   bordercolor="#000000"
   borderopacity="0.25"
   id="namedview1"
   inkscape:current-layer="svg1"
   inkscape:cx="506.68267"
   inkscape:cy="421.12927"
   inkscape:deskcolor="#d1d1d1"
   inkscape:document-units="mm"
   inkscape:pagecheckerboard="0"
   inkscape:pageopacity="0.0"
   inkscape:showpageshadow="2"
   inkscape:window-height="1011"
   inkscape:window-maximized="1"
   inkscape:window-width="1920"
   inkscape:window-x="0"
   inkscape:window-y="0"
   inkscape:zoom="0.67793911"
   pagecolor="#ffffff">
	</sodipodi:namedview>
<g
   id="layer1"
   transform="translate(29.2,-37)"
   inkscape:groupmode="layer"
   inkscape:label="Capa 1">
	<path
   id="path1"
   class="st0"
   d="m 245.3,326.5 -1.3,-0.7 -0.8,-2.4 -0.8,-2.4 -3.7,-16.5 -3.7,-16.5 -4.6,-19.5 -4.6,-19.5 -5.2,-20.6 -5.2,-20.6 -4.2,-14.9 -4.2,-14.9 -0.1,-0.5 -0.1,-0.5 -3.7,13.5 -3.7,13.5 -2.6,9.4 -2.6,9.4 -1.6,1.3 -1.6,1.3 h -17 -17 l -1.3,-0.9 -1.3,-0.9 -3.8,-23.2 -3.8,-23.2 -8.3,-49.1 -8.3,-49.1 -0.5,-3.4 -0.5,-3.4 -2.2,11.3 -2.5,11.6 -4.5,21.8 -4.5,21.7 -3.3,14.3 -3.3,14.3 -3.7,16.9 -3.7,16.9 -2.4,11.6 -2.4,11.6 -0.7,0.5 -0.7,0.5 -13.6,0.5 -13.5,0.3 h -6.4 -6.4 l -2.8,-0.8 -2.8,-0.8 -2.2,-1.8 -2.2,-1.8 -2.8,-5.5 -2.8,-5.5 -1.6,-1.8 -1.6,-1.8 -2.2,-1.1 -2.2,-1.1 -2.5,0.5 -2.5,0.5 -2,1.6 -2,1.6 -3.3,6.6 -3.3,6.6 -3.6,2.1 -3.6,2.1 -17.7,0.2 -17.7,0.2 -1.6,-2 -1.6,-2 v -1.2 -1.2 l 0.9,-1.9 0.9,-1.9 16.6,-0.4 16.8,-0.2 1.7,-1.5 1.7,-1.5 2.1,-4.6 2.1,-4.6 2.7,-3 2.7,-3 3.3,-1.6 3.3,-1.6 h 5.4 5.4 l 3.8,1.8 3.8,1.8 2.1,2.5 2.1,2.5 2.5,4.9 2.5,4.9 1.5,1.3 1.5,1.3 15.6,-0.2 15.6,-0.2 3.5,-17.3 3.5,-17.3 6.1,-26.6 6.1,-26.6 6,-28.1 6,-28.1 3.4,-14.9 3.4,-14.9 1.2,-1.8 1.2,-1.8 h 2.6 2.6 l 1.1,1.7 1.1,1.7 1.9,11.3 1.9,11.3 9,52.9 9,52.9 2.3,14.3 2.3,14.3 1.3,9 1.3,9 10.5,-0.2 10.5,-0.2 0.3,-0.3 0.3,-0.3 6.6,-24.2 6.6,-24.2 0.9,-2.2 0.9,-2.2 1.6,-1.7 1.6,-1.7 h 2.8 2.8 l 2,1.5 2,1.5 2.6,8.4 2.6,8.4 3.4,12 3.4,12 7,27.8 7,27.8 4.2,19.1 4.2,19.1 0.5,1.9 0.5,1.9 1.1,-4.1 1.1,-4.1 5.2,-18.7 5.2,-18.7 5,-16.5 5,-16.5 0.7,-2.4 0.7,-2.4 h 17 17 l 6.2,-0.5 6.2,-0.5 -4.2,-4.6 -4.2,-4.6 -6.2,-8.3 -6.2,-8.2 -4.1,-6.8 -4.1,-6.8 -2.7,-5.4 -2.7,-5.4 -2.3,-5.7 -2.3,-5.7 -1.8,-7.2 -1.8,-7.2 -0.9,-8.2 -0.9,-8.3 0.5,-6.4 0.5,-6.4 1.1,-5.9 1.1,-5.9 1.9,-6 1.9,-6 2.6,-5.6 2.6,-5.6 3.5,-5.4 3.5,-5.4 5.2,-5.4 5.2,-5.4 5.1,-3.4 5.1,-3.4 3.6,-1.6 3.6,-1.6 5.6,-1.4 5.6,-1.4 h 7.9 7.9 l 4.9,1.1 4.9,1.1 4.6,1.8 4.6,1.8 4.1,2.4 4.1,2.4 5.1,4.1 5.1,4.1 5.5,6.6 5.5,6.6 1.3,2.2 1.3,2.2 3.6,-5.4 3.6,-5.4 4.8,-5.2 4.8,-5.2 4,-3.1 4,-3.1 6.4,-3.4 6.4,-3.4 6,-1.7 6,-1.7 h 8.6 8.6 l 6,1.7 6,1.7 4.9,2.6 4.9,2.6 4.6,3.7 4.6,3.7 3.9,5.1 3.9,5.1 2.9,6 2.9,6 1.9,6.5 1.9,6.5 0.9,8.1 0.9,8.1 -0.5,6.8 -0.5,6.8 -1.1,6.4 -1.1,6.4 -2.9,8.7 -2.9,8.7 -4.7,9.3 -4.7,9.3 -4.5,7.5 -4.5,7.5 -7.3,10.9 -7.3,10.9 -7.8,10.5 -7.8,10.5 -5.7,6.8 -5.7,6.8 -2.1,0.5 -2.1,0.5 -1.9,-1.4 -1.9,-1.4 -0.2,-2.6 -0.2,-2.6 4.5,-5.9 4.5,-5.9 8.5,-11.3 8.5,-11.3 6.4,-9.4 6.4,-9.4 5,-8.3 5,-8.3 5.1,-10.2 5.1,-10.2 2.3,-7.4 2.3,-7.4 1.2,-7.1 1.2,-7.1 -0.4,-9.4 -0.4,-9.4 -1.5,-6 -1.5,-6 -3.5,-7.1 -3.5,-7.1 -5.7,-5.8 -5.7,-5.8 -3.6,-2 -3.6,-2 -4.3,-1.6 -4.3,-1.6 -6.4,-0.4 -6.4,-0.4 -5.6,1.3 -5.6,1.3 -5.2,2.5 -5.2,2.5 -5.6,4.5 -5.6,4.5 -3.9,4.8 -3.9,4.8 -3.6,6.3 -3.6,6.3 -1.1,2.2 -1.1,2.2 -2.2,0.6 -2.2,0.6 -1.8,-0.9 -1.8,-0.9 -4.7,-7.5 -4.7,-7.5 -5.9,-6.3 -5.9,-6.3 -4.5,-3.3 -4.5,-3.3 -5.3,-2.5 -5.3,-2.5 -5.6,-1.2 -5.6,-1.2 -6,0.4 -6,0.4 -5,1.8 -5,1.8 -4.3,2.5 -4.3,2.5 -5.3,5.2 -5.3,5.3 -3.9,6.3 -3.9,6.3 -2.3,5.6 -2.3,5.6 -1.9,7.2 -1.9,7.2 -0.1,12 -0.1,12 1.4,6 1.4,6 2.2,6.4 2.2,6.4 4.3,8.3 4.3,8.3 5,7.5 5,7.5 5.1,6.4 5.1,6.4 7.7,8 7.7,8 v 2.6 2.6 l -1.6,1.4 -1.6,1.4 -26.9,0.2 -26.9,0.2 -0.4,1.3 -0.4,1.3 -6,20.6 -6,20.6 -7.6,27.4 -7.6,27.4 -1.5,1.3 -1.5,1.3 h -1.6 -1.6 z" />
<text
   xml:space="preserve"
   style="text-align:start;writing-mode:lr-tb;direction:ltr;text-anchor:start;fill:#000000;stroke:#000000;stroke-width:0.245669;stroke-opacity:0"
   x="330.71432"
   y="134.35388"
   id="text5"><tspan
     sodipodi:role="line"
     id="tspan4"
     x="330.71432"
     y="134.35388"></tspan></text><text
   xml:space="preserve"
   transform="translate(-29.2,37)"
   id="text6"
   style="font-size:53.33333308px;text-align:start;writing-mode:lr-tb;direction:ltr;white-space:pre;shape-inside:url(#rect6);fill:#000000;stroke:#000000;stroke-width:0.245669;stroke-opacity:0" /><text
   xml:space="preserve"
   style="font-size:53.3333px;text-align:start;writing-mode:lr-tb;direction:ltr;text-anchor:start;fill:#000000;stroke:#000000;stroke-width:0.245669;stroke-opacity:0"
   x="377.9162"
   y="168.28023"
   id="text7"><tspan
     sodipodi:role="line"
     id="tspan7"
     x="377.9162"
     y="168.28023"></tspan></text><text
   xml:space="preserve"
   style="font-size:85.3333px;text-align:start;writing-mode:lr-tb;direction:ltr;text-anchor:start;fill:#000000;stroke:#000000;stroke-width:0.245669;stroke-opacity:0"
   x="345.4649"
   y="185.98093"
   id="text8"><tspan
     sodipodi:role="line"
     id="tspan8"
     x="345.4649"
     y="185.98093">26</tspan></text></g>
<text
   transform="scale(0.97385831,1.0268434)"
   class="st1 st2 st3"
   id="text1"
   x="360.06821"
   y="292.62808"
   style="stroke-width:0.973858">CinC</text>
<text
   class="st1 st2 st4"
   id="text2"
   x="374.34583"
   y="133.54311">26</text>
<text
   transform="scale(0.99614256,1.0038724)"
   class="st5 st6"
   id="text3"
   x="508.30658"
   y="201.75424"
   style="stroke-width:0.996143">adrid</text>
<text
   transform="scale(1.0526633,0.94997138)"
   class="st5 st3"
   id="text4"
   x="337.65283"
   y="311.63382"
   style="stroke-width:1.05266">CinC</text>
</svg>
